<?xml version="1.0" standalone="no"?>
<!DOCTYPE svg PUBLIC "-//W3C//DTD SVG 20010904//EN"
 "http://www.w3.org/TR/2001/REC-SVG-20010904/DTD/svg10.dtd">
<svg version="1.0" xmlns="http://www.w3.org/2000/svg"
 width="144.000000pt" height="144.000000pt" viewBox="0 0 144.000000 144.000000"
 preserveAspectRatio="xMidYMid meet">
<metadata>
Created by potrace 1.11, written by Peter Selinger 2001-2013
</metadata>
<g transform="translate(0.000000,144.000000) scale(0.100000,-0.100000)"
fill="#000000" stroke="none">
<path d="M1075 1026 l-60 -12 3 -41 c5 -59 -32 -91 -98 -84 -27 3 -61 50 -54
75 l6 23 -79 -15 c-43 -8 -80 -16 -82 -18 -2 -2 2 -39 9 -83 12 -71 15 -79 31
-70 47 25 109 -14 109 -69 0 -53 -31 -77 -100 -77 -1 0 31 -159 33 -160 1 -1
45 6 97 16 52 10 98 15 102 11 4 -4 2 -23 -5 -41 -11 -29 -10 -34 7 -47 26
-18 61 -18 80 2 22 21 20 51 -4 66 -23 15 -26 34 -7 41 7 3 47 10 89 17 42 7
81 16 88 20 10 6 8 29 -5 104 -10 53 -15 100 -11 103 3 3 17 1 31 -5 34 -16
40 -15 59 4 21 21 20 57 -2 77 -25 23 -48 21 -66 -4 -25 -36 -41 -16 -55 63
-23 135 -12 124 -116 104z"/>
<path d="M398 1019 c-22 -13 -24 -67 -3 -75 8 -4 15 -14 15 -23 0 -13 -20 -20
-102 -34 -56 -10 -103 -19 -105 -20 -1 -2 2 -20 7 -42 4 -22 11 -57 15 -79 5
-29 9 -36 18 -27 6 6 25 11 42 11 42 0 69 -31 69 -77 0 -44 -35 -77 -75 -71
l-26 4 13 -70 c23 -121 21 -118 52 -112 15 3 53 10 84 16 l58 11 -17 25 c-20
32 -6 67 36 89 56 29 121 -13 107 -69 l-6 -23 83 15 c45 8 84 16 86 19 5 3
-14 130 -26 182 -6 22 -4 23 36 16 50 -8 71 5 71 45 0 51 -58 79 -82 40 -7
-11 -18 -20 -25 -20 -14 0 -17 10 -37 118 -8 40 -16 75 -19 78 -3 3 -44 -2
-92 -11 -63 -12 -90 -14 -98 -6 -8 8 -8 14 1 23 43 43 -24 100 -80 67z"/>
<path d="M466 272 c-2 -4 4 -8 14 -8 10 0 16 4 14 8 -3 4 -9 8 -14 8 -5 0 -11
-4 -14 -8z"/>
<path d="M470 236 c7 -7 13 -7 20 0 6 6 3 10 -10 10 -13 0 -16 -4 -10 -10z"/>
</g>
</svg>
